<?xml version="1.0" encoding="utf-8"?>
<!-- Generator: Adobe Illustrator 24.3.0, SVG Export Plug-In . SVG Version: 6.00 Build 0)  -->
<svg version="1.1" id="Capa_1" xmlns="http://www.w3.org/2000/svg" xmlns:xlink="http://www.w3.org/1999/xlink" x="0px" y="0px"
	 viewBox="0 0 272 290" style="enable-background:new 0 0 272 290;" xml:space="preserve">
<style type="text/css">
	.st0{fill:none;stroke:#7683C0;stroke-width:3;stroke-miterlimit:10;}
	.st1{fill:none;stroke:#7683C0;stroke-width:5;stroke-linecap:round;stroke-miterlimit:10;}
	.st2{fill:#7683C0;}
</style>
<path class="st0" d="M213.17,157.74H63.55c-11.56,0-20.94-9.37-20.94-20.94V51.02c0-11.56,9.37-20.94,20.94-20.94h149.62
	c11.56,0,20.94,9.37,20.94,20.94v85.79C234.11,148.37,224.73,157.74,213.17,157.74z"/>
<rect x="82.45" y="213.66" class="st0" width="113.11" height="48.26"/>
<path class="st0" d="M224.02,248.38L224.02,248.38c-7.26,0-13.15-5.89-13.15-13.15v-19.4c0-7.26,5.89-13.15,13.15-13.15h0
	c7.26,0,13.15,5.89,13.15,13.15v19.4C237.17,242.5,231.28,248.38,224.02,248.38z"/>
<line class="st0" x1="42.62" y1="132.47" x2="234.11" y2="132.47"/>
<line class="st0" x1="122.28" y1="157.74" x2="115.13" y2="198.6"/>
<line class="st0" x1="153.94" y1="157.74" x2="163.38" y2="198.6"/>
<line class="st1" x1="173.09" y1="198.6" x2="104.15" y2="198.6"/>
<path class="st0" d="M102.36,157.74c0,0,8.26,17.36-51.83,12.85c0,0-32.17,0.51,13.53,21.11c23.54,10.61-7.66,15.32-7.66,15.32
	l-20.6,4.6c0,0-23.32,5.87-3.66,8.17c19.66,2.3,50.3,1.53,50.3,1.53"/>
<path class="st0" d="M174.62,157.74c0,0-6.89,26.04,19.66,15.83c26.55-10.21,51.89-0.73,54.51,1.72c2.94,2.74,8.81,8.36,0.13,14.3
	c-8.68,5.94-18.13-2.74-23.74,2.11c-5.62,4.85-2.55,10.98-2.55,10.98"/>
<rect x="111.55" y="241.74" class="st2" width="55.4" height="7.66"/>
<rect x="95.09" y="241.74" class="st2" width="7.66" height="7.66"/>
<rect x="95.09" y="225.47" class="st2" width="7.66" height="7.66"/>
<rect x="174.94" y="241.74" class="st2" width="7.66" height="7.66"/>
<rect x="174.94" y="225.47" class="st2" width="7.66" height="7.66"/>
<rect x="111.55" y="225.47" class="st2" width="7.66" height="7.66"/>
<rect x="126.74" y="225.47" class="st2" width="7.66" height="7.66"/>
<rect x="143.02" y="225.47" class="st2" width="7.66" height="7.66"/>
<rect x="159.55" y="225.47" class="st2" width="7.66" height="7.66"/>
</svg>
