<?xml version="1.0" encoding="utf-8"?>
<!-- Generator: Adobe Illustrator 24.3.0, SVG Export Plug-In . SVG Version: 6.00 Build 0)  -->
<svg version="1.1" id="Capa_1" xmlns="http://www.w3.org/2000/svg" xmlns:xlink="http://www.w3.org/1999/xlink" x="0px" y="0px"
	 viewBox="0 0 418 447" style="enable-background:new 0 0 418 447;" xml:space="preserve">
<style type="text/css">
	.st0{fill:none;stroke:#7683C0;stroke-width:3;stroke-miterlimit:10;}
	.st1{fill:#7683C0;stroke:#7683C0;stroke-width:3;stroke-miterlimit:10;}
</style>
<circle class="st0" cx="78.63" cy="86.05" r="35.23"/>
<circle class="st0" cx="301.23" cy="385.95" r="35.23"/>
<circle class="st0" cx="46.13" cy="274.93" r="30.07"/>
<circle class="st0" cx="149.88" cy="389.19" r="30.07"/>
<circle class="st0" cx="360.87" cy="230.18" r="30.07"/>
<path class="st1" d="M169.1,283.16h67.74v-46.98c0,0,5.45,48.34,9.19,51.74c3.74,3.4,18.72,2.72,22.13,0
	c3.4-2.72-3.74-60.26-3.74-60.26s-7.15-33.02-41.19-33.7c-5.33-0.11-10.84-0.2-16.34-0.15c-1.16,0.01-2.32,0.02-3.48,0.05
	c-28.43,0.53-55.98,5.24-59.84,30.07c-4.77,30.64-6.13,55.83-5.79,58.21c0.34,2.38,7.15,11.91,20.43,6.47c0,0,2.04,9.32,9.53-46.57
	L169.1,283.16z"/>
<ellipse class="st1" cx="204.34" cy="156.01" rx="28.43" ry="37.79"/>
<line class="st0" x1="99.57" y1="114.39" x2="137.73" y2="163.33"/>
<line class="st0" x1="76.2" y1="266.48" x2="125.87" y2="242.03"/>
<circle class="st0" cx="341.61" cy="100.57" r="30.07"/>
<line class="st0" x1="319.24" y1="122.15" x2="275.46" y2="156.01"/>
<line class="st0" x1="330.8" y1="230.18" x2="273.95" y2="213.03"/>
<line class="st0" x1="158.26" y1="360.31" x2="178.81" y2="303.09"/>
<line class="st0" x1="290.15" y1="352.5" x2="252.51" y2="307.33"/>
</svg>
