<?xml version="1.0" encoding="utf-8"?>
<!-- Generator: Adobe Illustrator 24.3.0, SVG Export Plug-In . SVG Version: 6.00 Build 0)  -->
<svg version="1.1" xmlns="http://www.w3.org/2000/svg" xmlns:xlink="http://www.w3.org/1999/xlink" x="0px" y="0px"
	 viewBox="0 0 512 512" style="enable-background:new 0 0 512 512;" xml:space="preserve">
<style type="text/css">
	.st0{fill:#7583C0;}
	.st1{fill:#1530BF;}
	.st2{fill:#1A25D9;}
	.st3{fill:#798AF3;}
	.st4{fill:#A0B4F1;}
	.st5{fill:#F2F2F2;}
	.st6{fill:#D9A566;}
	.st7{fill:#BE9674;}
	.st8{fill:#E8CDAF;}
	.st9{display:none;}
</style>
<g id="Capa_1">
	<path class="st0" d="M72.68,416.44H57.91v14.77h14.77v-4.05h163.65v13.16h37.15v-13.16h168.95v4.05h14.77v-14.77h-14.77v4.02
		H289.98c15.72-6.01,29.56-15.85,40.36-28.39c15.28-17.7,24.53-40.76,24.53-65.97h4.76v-16.18h-16.18v16.18h4.73
		c0,23.55-8.62,45.09-22.87,61.62c-13.21,15.31-31.3,26.35-51.83,30.7v-11.1h-37.15v11.53c-21.07-3.94-39.67-14.9-53.32-30.32
		c-14.66-16.61-23.58-38.48-23.58-62.44h4.73v-16.18H148v16.18h4.73c0,25.61,9.55,49.03,25.29,66.84
		c10.69,12.1,24.23,21.64,39.57,27.52H72.68V416.44z M285.68,304.1l-61.57-0.03 M254.9,378.99l30.78-74.51v-0.38l0,0V82.43l0,0
		V64.81h-61.57v17.62l0,0V304.1v0.38L254.9,378.99z M224.11,64.81h61.57V54.69c0-11.01-9.03-20.04-20.04-20.04h-21.48
		c-11.01,0-20.04,9.03-20.04,20.04V64.81z"/>
</g>
<g id="Capa_2" class="st9">
</g>
<g id="Capa_3" class="st9">
</g>
</svg>
